<svg width="352" height="253" viewBox="0 0 352 253" fill="none" xmlns="http://www.w3.org/2000/svg">
<line x1="20.9679" y1="248" x2="332.962" y2="246" stroke="#483511" stroke-width="10"/>
<mask id="path-2-outside-1_321_11" maskUnits="userSpaceOnUse" x="38" y="42" width="316" height="182" fill="black">
<rect fill="white" x="38" y="42" width="316" height="182"/>
<path d="M114.881 208.551C102.191 208.551 91.2538 205.545 82.0682 199.531C72.8826 193.471 65.804 184.782 60.8324 173.466C55.8608 162.102 53.3987 148.442 53.446 132.486C53.4934 116.529 55.9792 102.988 60.9034 91.8608C65.875 80.6865 72.9299 72.1875 82.0682 66.3636C91.2538 60.4924 102.191 57.5568 114.881 57.5568C127.57 57.5568 138.508 60.4924 147.693 66.3636C156.926 72.1875 164.028 80.6865 169 91.8608C173.972 103.035 176.434 116.577 176.386 132.486C176.386 148.49 173.901 162.173 168.929 173.537C163.957 184.901 156.879 193.589 147.693 199.602C138.555 205.568 127.617 208.551 114.881 208.551ZM114.881 179.787C122.456 179.787 128.588 175.928 133.276 168.21C137.963 160.445 140.283 148.537 140.236 132.486C140.236 121.974 139.17 113.31 137.04 106.491C134.909 99.6259 131.95 94.5123 128.162 91.1506C124.374 87.7888 119.947 86.108 114.881 86.108C107.352 86.108 101.268 89.9195 96.6278 97.5426C91.9877 105.118 89.6439 116.766 89.5966 132.486C89.5492 143.139 90.5672 151.97 92.6506 158.977C94.7813 165.985 97.7642 171.217 101.599 174.673C105.435 178.082 109.862 179.787 114.881 179.787ZM217.714 180.852V153.438L277.303 59.5455H301.663V96.7614H287.53L252.658 152.017V153.153H338.95V180.852H217.714ZM287.956 205V172.472L288.666 160.469V59.5455H321.55V205H287.956Z"/>
</mask>
<path d="M114.881 208.551C102.191 208.551 91.2538 205.545 82.0682 199.531C72.8826 193.471 65.804 184.782 60.8324 173.466C55.8608 162.102 53.3987 148.442 53.446 132.486C53.4934 116.529 55.9792 102.988 60.9034 91.8608C65.875 80.6865 72.9299 72.1875 82.0682 66.3636C91.2538 60.4924 102.191 57.5568 114.881 57.5568C127.57 57.5568 138.508 60.4924 147.693 66.3636C156.926 72.1875 164.028 80.6865 169 91.8608C173.972 103.035 176.434 116.577 176.386 132.486C176.386 148.49 173.901 162.173 168.929 173.537C163.957 184.901 156.879 193.589 147.693 199.602C138.555 205.568 127.617 208.551 114.881 208.551ZM114.881 179.787C122.456 179.787 128.588 175.928 133.276 168.21C137.963 160.445 140.283 148.537 140.236 132.486C140.236 121.974 139.17 113.31 137.04 106.491C134.909 99.6259 131.95 94.5123 128.162 91.1506C124.374 87.7888 119.947 86.108 114.881 86.108C107.352 86.108 101.268 89.9195 96.6278 97.5426C91.9877 105.118 89.6439 116.766 89.5966 132.486C89.5492 143.139 90.5672 151.97 92.6506 158.977C94.7813 165.985 97.7642 171.217 101.599 174.673C105.435 178.082 109.862 179.787 114.881 179.787ZM217.714 180.852V153.438L277.303 59.5455H301.663V96.7614H287.53L252.658 152.017V153.153H338.95V180.852H217.714ZM287.956 205V172.472L288.666 160.469V59.5455H321.55V205H287.956Z" fill="white"/>
<path d="M82.0682 199.531L73.8074 212.052L73.8299 212.066L73.8525 212.081L82.0682 199.531ZM60.8324 173.466L47.09 179.478L47.0946 179.489L47.0993 179.499L60.8324 173.466ZM53.446 132.486L38.4461 132.441L53.446 132.486ZM60.9034 91.8608L47.1986 85.7633L47.1926 85.7768L47.1866 85.7904L60.9034 91.8608ZM82.0682 66.3636L90.1298 79.0132L90.1382 79.0078L90.1466 79.0024L82.0682 66.3636ZM147.693 66.3636L139.615 79.0024L139.653 79.0266L139.691 79.0506L147.693 66.3636ZM169 91.8608L182.705 85.7633L169 91.8608ZM176.386 132.486L161.386 132.441L161.386 132.463V132.486H176.386ZM168.929 173.537L155.187 167.525V167.525L168.929 173.537ZM147.693 199.602L155.893 212.163L155.901 212.157L155.909 212.152L147.693 199.602ZM133.276 168.21L146.096 175.997L146.107 175.98L146.117 175.962L133.276 168.21ZM140.236 132.486H125.236V132.508L125.236 132.53L140.236 132.486ZM137.04 106.491L122.714 110.937L122.718 110.952L122.723 110.966L137.04 106.491ZM128.162 91.1506L138.119 79.9317L138.119 79.9317L128.162 91.1506ZM96.6278 97.5426L109.419 105.377L109.43 105.36L109.441 105.342L96.6278 97.5426ZM89.5966 132.486L104.596 132.552L104.596 132.542L104.597 132.531L89.5966 132.486ZM92.6506 158.977L78.2725 163.252L78.2858 163.296L78.2993 163.341L92.6506 158.977ZM101.599 174.673L91.5574 185.816L91.5956 185.85L91.634 185.884L101.599 174.673ZM114.881 193.551C104.644 193.551 96.6649 191.159 90.2839 186.981L73.8525 212.081C85.8426 219.93 99.7386 223.551 114.881 223.551V193.551ZM90.329 187.011C83.843 182.732 78.5231 176.441 74.5655 167.433L47.0993 179.499C53.0848 193.124 61.9221 204.21 73.8074 212.052L90.329 187.011ZM74.5747 167.454C70.6413 158.463 68.4031 146.976 68.446 132.53L38.4461 132.441C38.3943 149.909 41.0803 165.742 47.09 179.478L74.5747 167.454ZM68.446 132.53C68.489 118.033 70.754 106.667 74.6202 97.9312L47.1866 85.7904C41.2044 99.308 38.4978 115.025 38.4461 132.441L68.446 132.53ZM74.6082 97.9583C78.5418 89.1171 83.7857 83.0563 90.1298 79.0132L74.0066 53.7141C62.0742 61.3187 53.2082 72.256 47.1986 85.7633L74.6082 97.9583ZM90.1466 79.0024C96.5459 74.9122 104.575 72.5568 114.881 72.5568V42.5568C99.8072 42.5568 85.9617 46.0727 73.9898 53.7248L90.1466 79.0024ZM114.881 72.5568C125.186 72.5568 133.215 74.9122 139.615 79.0024L155.772 53.7248C143.8 46.0727 129.954 42.5568 114.881 42.5568V72.5568ZM139.691 79.0506C146.117 83.104 151.38 89.158 155.295 97.9583L182.705 85.7633C176.677 72.2151 167.736 61.271 155.696 53.6767L139.691 79.0506ZM155.295 97.9583C159.189 106.711 161.429 118.039 161.386 132.441L191.386 132.53C191.438 115.115 188.754 99.3591 182.705 85.7633L155.295 97.9583ZM161.386 132.486C161.386 146.996 159.125 158.522 155.187 167.525L182.671 179.549C188.676 165.825 191.386 149.983 191.386 132.486H161.386ZM155.187 167.525C151.227 176.576 145.918 182.836 139.477 187.052L155.909 212.152C167.84 204.342 176.688 193.225 182.671 179.549L155.187 167.525ZM139.493 187.042C133.179 191.164 125.202 193.551 114.881 193.551V223.551C130.033 223.551 143.931 219.972 155.893 212.163L139.493 187.042ZM114.881 194.787C128.776 194.787 139.3 187.186 146.096 175.997L120.455 160.424C117.876 164.67 116.137 164.787 114.881 164.787V194.787ZM146.117 175.962C152.942 164.657 155.286 149.405 155.236 132.442L125.236 132.53C125.281 147.669 122.984 156.233 120.434 160.458L146.117 175.962ZM155.236 132.486C155.236 121.102 154.099 110.792 151.357 102.017L122.723 110.966C124.242 115.827 125.236 122.847 125.236 132.486H155.236ZM151.366 102.045C148.747 93.6066 144.639 85.7181 138.119 79.9317L118.205 102.369C119.261 103.306 121.071 105.645 122.714 110.937L151.366 102.045ZM138.119 79.9317C131.585 74.1331 123.615 71.1079 114.881 71.1079V101.108C116.279 101.108 117.163 101.445 118.205 102.369L138.119 79.9317ZM114.881 71.1079C101.071 71.1079 90.5847 78.6216 83.8149 89.7434L109.441 105.342C111.951 101.217 113.633 101.108 114.881 101.108V71.1079ZM83.8365 89.7079C77.0346 100.813 74.6468 115.807 74.5967 132.441L104.597 132.531C104.641 117.725 106.941 109.424 109.419 105.377L83.8365 89.7079ZM74.5967 132.419C74.5456 143.935 75.6267 154.352 78.2725 163.252L107.029 154.703C105.508 149.587 104.553 142.344 104.596 132.552L74.5967 132.419ZM78.2993 163.341C80.9081 171.921 85.0194 179.924 91.5574 185.816L111.642 163.531C110.509 162.51 108.654 160.049 107.002 154.614L78.2993 163.341ZM91.634 185.884C98.1473 191.674 106.098 194.787 114.881 194.787V164.787C113.625 164.787 112.722 164.491 111.565 163.462L91.634 185.884ZM217.714 180.852H202.714V195.852H217.714V180.852ZM217.714 153.438L205.05 145.4L202.714 149.079V153.438H217.714ZM277.303 59.5454V44.5454H269.056L264.638 51.5078L277.303 59.5454ZM301.663 59.5454H316.663V44.5454H301.663V59.5454ZM301.663 96.7614V111.761H316.663V96.7614H301.663ZM287.53 96.7614V81.7614H279.259L274.845 88.7558L287.53 96.7614ZM252.658 152.017L239.973 144.011L237.658 147.68V152.017H252.658ZM252.658 153.153H237.658V168.153H252.658V153.153ZM338.95 153.153H353.95V138.153H338.95V153.153ZM338.95 180.852V195.852H353.95V180.852H338.95ZM287.956 205H272.956V220H287.956V205ZM287.956 172.472L272.982 171.586L272.956 172.028V172.472H287.956ZM288.666 160.469L303.64 161.355L303.666 160.912V160.469H288.666ZM288.666 59.5454V44.5454H273.666V59.5454H288.666ZM321.55 59.5454H336.55V44.5454H321.55V59.5454ZM321.55 205V220H336.55V205H321.55ZM232.714 180.852V153.438H202.714V180.852H232.714ZM230.379 161.475L289.967 67.5831L264.638 51.5078L205.05 145.4L230.379 161.475ZM277.303 74.5454H301.663V44.5454H277.303V74.5454ZM286.663 59.5454V96.7614H316.663V59.5454H286.663ZM301.663 81.7614H287.53V111.761H301.663V81.7614ZM274.845 88.7558L239.973 144.011L265.343 160.023L300.215 104.767L274.845 88.7558ZM237.658 152.017V153.153H267.658V152.017H237.658ZM252.658 168.153H338.95V138.153H252.658V168.153ZM323.95 153.153V180.852H353.95V153.153H323.95ZM338.95 165.852H217.714V195.852H338.95V165.852ZM302.956 205V172.472H272.956V205H302.956ZM302.93 173.358L303.64 161.355L273.692 159.583L272.982 171.586L302.93 173.358ZM303.666 160.469V59.5454H273.666V160.469H303.666ZM288.666 74.5454H321.55V44.5454H288.666V74.5454ZM306.55 59.5454V205H336.55V59.5454H306.55ZM321.55 190H287.956V220H321.55V190Z" fill="#483511" mask="url(#path-2-outside-1_321_11)"/>
</svg>
