<svg width="352" height="253" viewBox="0 0 352 253" fill="none" xmlns="http://www.w3.org/2000/svg">
<line x1="20.9679" y1="248" x2="332.962" y2="246" stroke="#483511" stroke-width="10"/>
<mask id="path-2-outside-1_321_11" maskUnits="userSpaceOnUse" x="38" y="42" width="311" height="182" fill="black">
<rect fill="white" x="38" y="42" width="311" height="182"/>
<path d="M114.881 208.551C102.191 208.551 91.2538 205.545 82.0682 199.531C72.8826 193.471 65.804 184.782 60.8324 173.466C55.8608 162.102 53.3987 148.442 53.446 132.486C53.4934 116.529 55.9792 102.988 60.9034 91.8608C65.875 80.6865 72.9299 72.1875 82.0682 66.3636C91.2538 60.4924 102.191 57.5568 114.881 57.5568C127.57 57.5568 138.508 60.4924 147.693 66.3636C156.926 72.1875 164.028 80.6865 169 91.8608C173.972 103.035 176.434 116.577 176.386 132.486C176.386 148.49 173.901 162.173 168.929 173.537C163.957 184.901 156.879 193.589 147.693 199.602C138.555 205.568 127.617 208.551 114.881 208.551ZM114.881 179.787C122.456 179.787 128.588 175.928 133.276 168.21C137.963 160.445 140.283 148.537 140.236 132.486C140.236 121.974 139.17 113.31 137.04 106.491C134.909 99.6259 131.95 94.5123 128.162 91.1506C124.374 87.7888 119.947 86.108 114.881 86.108C107.352 86.108 101.268 89.9195 96.6278 97.5426C91.9877 105.118 89.6439 116.766 89.5966 132.486C89.5492 143.139 90.5672 151.97 92.6506 158.977C94.7813 165.985 97.7642 171.217 101.599 174.673C105.435 178.082 109.862 179.787 114.881 179.787ZM274.817 206.989C263.737 206.989 253.912 205.095 245.342 201.307C236.82 197.472 230.096 192.192 225.172 185.469C220.248 178.745 217.738 171.004 217.643 162.244H253.013C253.155 165.417 254.173 168.234 256.067 170.696C257.961 173.111 260.541 175.005 263.808 176.378C267.075 177.751 270.792 178.438 274.959 178.438C279.125 178.438 282.795 177.704 285.967 176.236C289.187 174.721 291.696 172.661 293.496 170.057C295.295 167.405 296.171 164.375 296.124 160.966C296.171 157.557 295.2 154.527 293.212 151.875C291.223 149.223 288.406 147.164 284.76 145.696C281.161 144.228 276.9 143.494 271.976 143.494H257.842V118.494H271.976C276.285 118.494 280.072 117.784 283.339 116.364C286.654 114.943 289.234 112.955 291.081 110.398C292.928 107.794 293.827 104.811 293.78 101.449C293.827 98.1818 293.046 95.3172 291.436 92.8551C289.874 90.3456 287.672 88.4044 284.831 87.0312C282.037 85.6581 278.794 84.9716 275.101 84.9716C271.218 84.9716 267.691 85.6581 264.518 87.0312C261.393 88.4044 258.908 90.3456 257.061 92.8551C255.214 95.3646 254.244 98.2765 254.149 101.591H220.555C220.65 92.9261 223.065 85.303 227.8 78.7216C232.535 72.0928 238.974 66.9081 247.118 63.1676C255.309 59.4271 264.637 57.5568 275.101 57.5568C285.518 57.5568 294.679 59.3797 302.587 63.0256C310.494 66.6714 316.649 71.643 321.053 77.9403C325.456 84.1903 327.658 91.2689 327.658 99.1761C327.705 107.367 325.03 114.115 319.632 119.418C314.282 124.721 307.393 127.988 298.964 129.219V130.355C310.233 131.681 318.732 135.327 324.462 141.293C330.238 147.259 333.103 154.716 333.055 163.665C333.055 172.093 330.57 179.574 325.598 186.108C320.674 192.595 313.808 197.708 305.001 201.449C296.242 205.142 286.18 206.989 274.817 206.989Z"/>
</mask>
<path d="M114.881 208.551C102.191 208.551 91.2538 205.545 82.0682 199.531C72.8826 193.471 65.804 184.782 60.8324 173.466C55.8608 162.102 53.3987 148.442 53.446 132.486C53.4934 116.529 55.9792 102.988 60.9034 91.8608C65.875 80.6865 72.9299 72.1875 82.0682 66.3636C91.2538 60.4924 102.191 57.5568 114.881 57.5568C127.57 57.5568 138.508 60.4924 147.693 66.3636C156.926 72.1875 164.028 80.6865 169 91.8608C173.972 103.035 176.434 116.577 176.386 132.486C176.386 148.49 173.901 162.173 168.929 173.537C163.957 184.901 156.879 193.589 147.693 199.602C138.555 205.568 127.617 208.551 114.881 208.551ZM114.881 179.787C122.456 179.787 128.588 175.928 133.276 168.21C137.963 160.445 140.283 148.537 140.236 132.486C140.236 121.974 139.17 113.31 137.04 106.491C134.909 99.6259 131.95 94.5123 128.162 91.1506C124.374 87.7888 119.947 86.108 114.881 86.108C107.352 86.108 101.268 89.9195 96.6278 97.5426C91.9877 105.118 89.6439 116.766 89.5966 132.486C89.5492 143.139 90.5672 151.97 92.6506 158.977C94.7813 165.985 97.7642 171.217 101.599 174.673C105.435 178.082 109.862 179.787 114.881 179.787ZM274.817 206.989C263.737 206.989 253.912 205.095 245.342 201.307C236.82 197.472 230.096 192.192 225.172 185.469C220.248 178.745 217.738 171.004 217.643 162.244H253.013C253.155 165.417 254.173 168.234 256.067 170.696C257.961 173.111 260.541 175.005 263.808 176.378C267.075 177.751 270.792 178.438 274.959 178.438C279.125 178.438 282.795 177.704 285.967 176.236C289.187 174.721 291.696 172.661 293.496 170.057C295.295 167.405 296.171 164.375 296.124 160.966C296.171 157.557 295.2 154.527 293.212 151.875C291.223 149.223 288.406 147.164 284.76 145.696C281.161 144.228 276.9 143.494 271.976 143.494H257.842V118.494H271.976C276.285 118.494 280.072 117.784 283.339 116.364C286.654 114.943 289.234 112.955 291.081 110.398C292.928 107.794 293.827 104.811 293.78 101.449C293.827 98.1818 293.046 95.3172 291.436 92.8551C289.874 90.3456 287.672 88.4044 284.831 87.0312C282.037 85.6581 278.794 84.9716 275.101 84.9716C271.218 84.9716 267.691 85.6581 264.518 87.0312C261.393 88.4044 258.908 90.3456 257.061 92.8551C255.214 95.3646 254.244 98.2765 254.149 101.591H220.555C220.65 92.9261 223.065 85.303 227.8 78.7216C232.535 72.0928 238.974 66.9081 247.118 63.1676C255.309 59.4271 264.637 57.5568 275.101 57.5568C285.518 57.5568 294.679 59.3797 302.587 63.0256C310.494 66.6714 316.649 71.643 321.053 77.9403C325.456 84.1903 327.658 91.2689 327.658 99.1761C327.705 107.367 325.03 114.115 319.632 119.418C314.282 124.721 307.393 127.988 298.964 129.219V130.355C310.233 131.681 318.732 135.327 324.462 141.293C330.238 147.259 333.103 154.716 333.055 163.665C333.055 172.093 330.57 179.574 325.598 186.108C320.674 192.595 313.808 197.708 305.001 201.449C296.242 205.142 286.18 206.989 274.817 206.989Z" fill="white"/>
<path d="M82.0682 199.531L73.8074 212.052L73.8299 212.066L73.8525 212.081L82.0682 199.531ZM60.8324 173.466L47.09 179.478L47.0946 179.489L47.0993 179.499L60.8324 173.466ZM53.446 132.486L38.4461 132.441L53.446 132.486ZM60.9034 91.8608L47.1986 85.7633L47.1926 85.7768L47.1866 85.7904L60.9034 91.8608ZM82.0682 66.3636L90.1298 79.0132L90.1382 79.0078L90.1466 79.0024L82.0682 66.3636ZM147.693 66.3636L139.615 79.0024L139.653 79.0266L139.691 79.0506L147.693 66.3636ZM169 91.8608L182.705 85.7633L169 91.8608ZM176.386 132.486L161.386 132.441L161.386 132.463V132.486H176.386ZM168.929 173.537L155.187 167.525V167.525L168.929 173.537ZM147.693 199.602L155.893 212.163L155.901 212.157L155.909 212.152L147.693 199.602ZM133.276 168.21L146.096 175.997L146.107 175.98L146.117 175.962L133.276 168.21ZM140.236 132.486H125.236V132.508L125.236 132.53L140.236 132.486ZM137.04 106.491L122.714 110.937L122.718 110.952L122.723 110.966L137.04 106.491ZM128.162 91.1506L138.119 79.9317L138.119 79.9317L128.162 91.1506ZM96.6278 97.5426L109.419 105.377L109.43 105.36L109.441 105.342L96.6278 97.5426ZM89.5966 132.486L104.596 132.552L104.596 132.542L104.597 132.531L89.5966 132.486ZM92.6506 158.977L78.2725 163.252L78.2858 163.296L78.2993 163.341L92.6506 158.977ZM101.599 174.673L91.5574 185.816L91.5956 185.85L91.634 185.884L101.599 174.673ZM114.881 193.551C104.644 193.551 96.6649 191.159 90.2839 186.981L73.8525 212.081C85.8426 219.93 99.7386 223.551 114.881 223.551V193.551ZM90.329 187.011C83.843 182.732 78.5231 176.441 74.5655 167.433L47.0993 179.499C53.0848 193.124 61.9221 204.21 73.8074 212.052L90.329 187.011ZM74.5747 167.454C70.6413 158.463 68.4031 146.976 68.446 132.53L38.4461 132.441C38.3943 149.909 41.0803 165.742 47.09 179.478L74.5747 167.454ZM68.446 132.53C68.489 118.033 70.754 106.667 74.6202 97.9312L47.1866 85.7904C41.2044 99.308 38.4978 115.025 38.4461 132.441L68.446 132.53ZM74.6082 97.9583C78.5418 89.1171 83.7857 83.0563 90.1298 79.0132L74.0066 53.7141C62.0742 61.3187 53.2082 72.256 47.1986 85.7633L74.6082 97.9583ZM90.1466 79.0024C96.5459 74.9122 104.575 72.5568 114.881 72.5568V42.5568C99.8072 42.5568 85.9617 46.0727 73.9898 53.7248L90.1466 79.0024ZM114.881 72.5568C125.186 72.5568 133.215 74.9122 139.615 79.0024L155.772 53.7248C143.8 46.0727 129.954 42.5568 114.881 42.5568V72.5568ZM139.691 79.0506C146.117 83.104 151.38 89.158 155.295 97.9583L182.705 85.7633C176.677 72.2151 167.736 61.271 155.696 53.6767L139.691 79.0506ZM155.295 97.9583C159.189 106.711 161.429 118.039 161.386 132.441L191.386 132.53C191.438 115.115 188.754 99.3591 182.705 85.7633L155.295 97.9583ZM161.386 132.486C161.386 146.996 159.125 158.522 155.187 167.525L182.671 179.549C188.676 165.825 191.386 149.983 191.386 132.486H161.386ZM155.187 167.525C151.227 176.576 145.918 182.836 139.477 187.052L155.909 212.152C167.84 204.342 176.688 193.225 182.671 179.549L155.187 167.525ZM139.493 187.042C133.179 191.164 125.202 193.551 114.881 193.551V223.551C130.033 223.551 143.931 219.972 155.893 212.163L139.493 187.042ZM114.881 194.787C128.776 194.787 139.3 187.186 146.096 175.997L120.455 160.424C117.876 164.67 116.137 164.787 114.881 164.787V194.787ZM146.117 175.962C152.942 164.657 155.286 149.405 155.236 132.442L125.236 132.53C125.281 147.669 122.984 156.233 120.434 160.458L146.117 175.962ZM155.236 132.486C155.236 121.102 154.099 110.792 151.357 102.017L122.723 110.966C124.242 115.827 125.236 122.847 125.236 132.486H155.236ZM151.366 102.045C148.747 93.6066 144.639 85.7181 138.119 79.9317L118.205 102.369C119.261 103.306 121.071 105.645 122.714 110.937L151.366 102.045ZM138.119 79.9317C131.585 74.1331 123.615 71.1079 114.881 71.1079V101.108C116.279 101.108 117.163 101.445 118.205 102.369L138.119 79.9317ZM114.881 71.1079C101.071 71.1079 90.5847 78.6216 83.8149 89.7434L109.441 105.342C111.951 101.217 113.633 101.108 114.881 101.108V71.1079ZM83.8365 89.7079C77.0346 100.813 74.6468 115.807 74.5967 132.441L104.597 132.531C104.641 117.725 106.941 109.424 109.419 105.377L83.8365 89.7079ZM74.5967 132.419C74.5456 143.935 75.6267 154.352 78.2725 163.252L107.029 154.703C105.508 149.587 104.553 142.344 104.596 132.552L74.5967 132.419ZM78.2993 163.341C80.9081 171.921 85.0194 179.924 91.5574 185.816L111.642 163.531C110.509 162.51 108.654 160.049 107.002 154.614L78.2993 163.341ZM91.634 185.884C98.1473 191.674 106.098 194.787 114.881 194.787V164.787C113.625 164.787 112.722 164.491 111.565 163.462L91.634 185.884ZM245.342 201.307L239.187 214.986L239.233 215.006L239.278 215.026L245.342 201.307ZM225.172 185.469L213.07 194.332L225.172 185.469ZM217.643 162.244V147.244H202.48L202.644 162.406L217.643 162.244ZM253.013 162.244L267.998 161.573L267.356 147.244H253.013V162.244ZM256.067 170.696L244.177 179.842L244.22 179.898L244.264 179.953L256.067 170.696ZM263.808 176.378L257.996 190.206V190.206L263.808 176.378ZM285.967 176.236L292.266 189.849L292.31 189.829L292.354 189.808L285.967 176.236ZM293.496 170.057L305.837 178.583L305.872 178.531L305.908 178.479L293.496 170.057ZM296.124 160.966L281.125 160.758L281.122 160.966L281.125 161.174L296.124 160.966ZM293.212 151.875L281.212 160.875L293.212 151.875ZM284.76 145.696L279.095 159.585L279.126 159.598L279.158 159.611L284.76 145.696ZM257.842 143.494H242.842V158.494H257.842V143.494ZM257.842 118.494V103.494H242.842V118.494H257.842ZM283.339 116.364L277.431 102.576L277.395 102.592L277.359 102.608L283.339 116.364ZM291.081 110.398L303.241 119.18L303.279 119.127L303.317 119.074L291.081 110.398ZM293.78 101.449L278.781 101.231L278.778 101.446L278.781 101.66L293.78 101.449ZM291.436 92.8551L278.703 100.783L278.791 100.925L278.882 101.064L291.436 92.8551ZM284.831 87.0312L278.214 100.493L278.259 100.515L278.303 100.536L284.831 87.0312ZM264.518 87.0312L258.56 73.2654L258.522 73.2818L258.484 73.2985L264.518 87.0312ZM257.061 92.8551L269.143 101.745L269.143 101.745L257.061 92.8551ZM254.149 101.591V116.591H268.727L269.143 102.019L254.149 101.591ZM220.555 101.591L205.556 101.427L205.391 116.591H220.555V101.591ZM227.8 78.7216L239.976 87.4815L239.991 87.4609L240.006 87.4402L227.8 78.7216ZM247.118 63.1676L240.887 49.5229L240.872 49.5298L240.857 49.5366L247.118 63.1676ZM302.587 63.0256L296.306 76.6473L302.587 63.0256ZM321.053 77.9403L308.76 86.5361L308.775 86.5579L308.79 86.5796L321.053 77.9403ZM327.658 99.1761H312.658V99.2195L312.658 99.2628L327.658 99.1761ZM319.632 119.418L309.12 108.718L309.096 108.741L309.073 108.764L319.632 119.418ZM298.964 129.219L296.796 114.376L283.964 116.251V129.219H298.964ZM298.964 130.355H283.964V143.694L297.212 145.252L298.964 130.355ZM324.462 141.293L313.643 151.682L313.664 151.705L313.685 151.727L324.462 141.293ZM333.055 163.665L318.056 163.585L318.055 163.625V163.665H333.055ZM325.598 186.108L313.661 177.025L313.656 177.032L313.651 177.038L325.598 186.108ZM305.001 201.449L310.829 215.271L310.847 215.263L310.865 215.255L305.001 201.449ZM274.817 191.989C265.45 191.989 257.75 190.391 251.406 187.587L239.278 215.026C250.075 219.798 262.025 221.989 274.817 221.989V191.989ZM251.498 187.628C245.047 184.725 240.486 180.992 237.273 176.606L213.07 194.332C219.706 203.392 228.592 210.218 239.187 214.986L251.498 187.628ZM237.273 176.606C234.298 172.543 232.705 167.88 232.643 162.082L202.644 162.406C202.771 174.127 206.198 184.948 213.07 194.332L237.273 176.606ZM217.643 177.244H253.013V147.244H217.643V177.244ZM238.028 162.915C238.304 169.09 240.362 174.882 244.177 179.842L267.956 161.55C267.943 161.533 267.937 161.524 267.936 161.523C267.936 161.522 267.939 161.527 267.945 161.538C267.951 161.549 267.959 161.564 267.967 161.583C267.975 161.601 267.983 161.62 267.99 161.639C267.997 161.658 268.002 161.674 268.005 161.687C268.009 161.699 268.01 161.706 268.01 161.705C268.01 161.704 268.008 161.694 268.005 161.673C268.003 161.652 268 161.619 267.998 161.573L238.028 162.915ZM244.264 179.953C247.962 184.669 252.744 187.998 257.996 190.206L269.62 162.55C268.339 162.011 267.959 161.553 267.87 161.439L244.264 179.953ZM257.996 190.206C263.397 192.476 269.142 193.438 274.959 193.438V163.438C272.442 163.438 270.753 163.026 269.62 162.55L257.996 190.206ZM274.959 193.438C280.889 193.438 286.777 192.389 292.266 189.849L279.669 162.622C278.813 163.018 277.362 163.438 274.959 163.438V193.438ZM292.354 189.808C297.665 187.309 302.353 183.626 305.837 178.583L281.155 161.53C281.04 161.696 280.709 162.133 279.58 162.664L292.354 189.808ZM305.908 178.479C309.547 173.117 311.209 167.033 311.122 160.758L281.125 161.174C281.128 161.352 281.117 161.47 281.109 161.537C281.104 161.571 281.1 161.595 281.097 161.609C281.094 161.623 281.092 161.629 281.092 161.63C281.092 161.631 281.093 161.628 281.095 161.622C281.097 161.617 281.099 161.612 281.101 161.607C281.106 161.597 281.104 161.605 281.084 161.634L305.908 178.479ZM311.122 161.174C311.214 154.551 309.251 148.261 305.212 142.875L281.212 160.875C281.236 160.907 281.229 160.903 281.209 160.864C281.188 160.824 281.165 160.771 281.146 160.712C281.127 160.654 281.121 160.616 281.12 160.609C281.119 160.604 281.127 160.65 281.125 160.758L311.122 161.174ZM305.212 142.875C301.296 137.654 296.073 134.081 290.362 131.781L279.158 159.611C280.739 160.247 281.15 160.793 281.212 160.875L305.212 142.875ZM290.425 131.807C284.618 129.438 278.344 128.494 271.976 128.494V158.494C275.456 158.494 277.705 159.018 279.095 159.585L290.425 131.807ZM271.976 128.494H257.842V158.494H271.976V128.494ZM272.842 143.494V118.494H242.842V143.494H272.842ZM257.842 133.494H271.976V103.494H257.842V133.494ZM271.976 133.494C277.921 133.494 283.814 132.514 289.32 130.12L277.359 102.608C276.331 103.055 274.649 103.494 271.976 103.494V133.494ZM289.248 130.151C294.696 127.816 299.585 124.242 303.241 119.18L278.921 101.615C278.883 101.667 278.611 102.07 277.431 102.576L289.248 130.151ZM303.317 119.074C307.105 113.732 308.868 107.6 308.778 101.238L278.781 101.66C278.783 101.799 278.775 101.877 278.771 101.902C278.768 101.927 278.768 101.914 278.78 101.876C278.785 101.858 278.792 101.838 278.8 101.816C278.809 101.795 278.818 101.775 278.827 101.757C278.845 101.719 278.856 101.706 278.845 101.721L303.317 119.074ZM308.778 101.666C308.864 95.7539 307.415 89.8842 303.991 84.6464L278.882 101.064C278.857 101.026 278.829 100.977 278.804 100.92C278.778 100.863 278.764 100.819 278.758 100.797C278.752 100.775 278.759 100.792 278.766 100.857C278.774 100.922 278.784 101.045 278.781 101.231L308.778 101.666ZM304.17 84.9268C301.005 79.8447 296.574 76.0469 291.358 73.526L278.303 100.536C278.587 100.674 278.689 100.765 278.693 100.768C278.699 100.773 278.696 100.772 278.691 100.766C278.686 100.76 278.69 100.764 278.703 100.783L304.17 84.9268ZM291.448 73.5695C286.246 71.0125 280.664 69.9716 275.101 69.9716V99.9716C276.924 99.9716 277.829 100.304 278.214 100.493L291.448 73.5695ZM275.101 69.9716C269.421 69.9716 263.832 70.9835 258.56 73.2654L270.477 100.797C271.55 100.333 273.015 99.9716 275.101 99.9716V69.9716ZM258.484 73.2985C253.191 75.6245 248.529 79.1409 244.98 83.9649L269.143 101.745C269.286 101.55 269.596 101.184 270.553 100.764L258.484 73.2985ZM244.98 83.9649C241.205 89.0945 239.331 95.0037 239.155 101.163L269.143 102.019C269.148 101.86 269.161 101.76 269.17 101.71C269.178 101.661 269.184 101.649 269.178 101.665C269.173 101.68 269.163 101.705 269.151 101.729C269.138 101.754 269.132 101.76 269.143 101.745L244.98 83.9649ZM254.149 86.5909H220.555V116.591H254.149V86.5909ZM235.555 101.755C235.618 95.9534 237.171 91.3804 239.976 87.4815L215.623 69.9616C208.959 79.2257 205.682 89.8989 205.556 101.427L235.555 101.755ZM240.006 87.4402C243.072 83.1475 247.367 79.56 253.379 76.7986L240.857 49.5366C230.581 54.2563 221.997 61.0381 215.594 70.003L240.006 87.4402ZM253.349 76.8123C259.292 74.0982 266.441 72.5568 275.101 72.5568V42.5568C262.833 42.5568 251.326 44.7559 240.887 49.5229L253.349 76.8123ZM275.101 72.5568C283.768 72.5568 290.716 74.0701 296.306 76.6473L308.867 49.4038C298.642 44.6893 287.267 42.5568 275.101 42.5568V72.5568ZM296.306 76.6473C302.127 79.3312 306.074 82.695 308.76 86.5361L333.345 69.3446C327.224 60.591 318.861 54.0116 308.867 49.4038L296.306 76.6473ZM308.79 86.5796C311.348 90.2103 312.658 94.2493 312.658 99.1761H342.658C342.658 88.2886 339.564 78.1704 333.315 69.301L308.79 86.5796ZM312.658 99.2628C312.684 103.771 311.371 106.506 309.12 108.718L330.144 130.118C338.689 121.723 342.726 110.964 342.657 99.0894L312.658 99.2628ZM309.073 108.764C306.292 111.52 302.485 113.545 296.796 114.376L301.133 144.061C312.3 142.43 322.271 137.922 330.191 130.071L309.073 108.764ZM283.964 129.219V130.355H313.965V129.219H283.964ZM297.212 145.252C306.304 146.322 311.083 149.017 313.643 151.682L335.281 130.903C326.382 121.636 314.162 117.04 300.717 115.458L297.212 145.252ZM313.685 151.727C316.509 154.643 318.084 158.223 318.056 163.585L348.055 163.744C348.122 151.209 343.967 139.874 335.238 130.858L313.685 151.727ZM318.055 163.665C318.055 168.905 316.589 173.176 313.661 177.025L337.535 195.191C344.55 185.972 348.055 175.28 348.055 163.665H318.055ZM313.651 177.038C310.564 181.105 305.962 184.744 299.137 187.643L310.865 215.255C321.655 210.673 330.784 204.085 337.545 195.178L313.651 177.038ZM299.174 187.627C292.582 190.406 284.562 191.989 274.817 191.989V221.989C287.799 221.989 299.902 219.878 310.829 215.271L299.174 187.627Z" fill="#483511" mask="url(#path-2-outside-1_321_11)"/>
</svg>
