<svg width="352" height="253" viewBox="0 0 352 253" fill="none" xmlns="http://www.w3.org/2000/svg">
<line x1="20.9679" y1="248" x2="332.962" y2="246" stroke="#483511" stroke-width="10"/>
<mask id="path-2-outside-1_321_11" maskUnits="userSpaceOnUse" x="38" y="42" width="305" height="182" fill="black">
<rect fill="white" x="38" y="42" width="305" height="182"/>
<path d="M114.881 208.551C102.191 208.551 91.2538 205.545 82.0682 199.531C72.8826 193.471 65.804 184.782 60.8324 173.466C55.8608 162.102 53.3987 148.442 53.446 132.486C53.4934 116.529 55.9792 102.988 60.9034 91.8608C65.875 80.6865 72.9299 72.1875 82.0682 66.3636C91.2538 60.4924 102.191 57.5568 114.881 57.5568C127.57 57.5568 138.508 60.4924 147.693 66.3636C156.926 72.1875 164.028 80.6865 169 91.8608C173.972 103.035 176.434 116.577 176.386 132.486C176.386 148.49 173.901 162.173 168.929 173.537C163.957 184.901 156.879 193.589 147.693 199.602C138.555 205.568 127.617 208.551 114.881 208.551ZM114.881 179.787C122.456 179.787 128.588 175.928 133.276 168.21C137.963 160.445 140.283 148.537 140.236 132.486C140.236 121.974 139.17 113.31 137.04 106.491C134.909 99.6259 131.95 94.5123 128.162 91.1506C124.374 87.7888 119.947 86.108 114.881 86.108C107.352 86.108 101.268 89.9195 96.6278 97.5426C91.9877 105.118 89.6439 116.766 89.5966 132.486C89.5492 143.139 90.5672 151.97 92.6506 158.977C94.7813 165.985 97.7642 171.217 101.599 174.673C105.435 178.082 109.862 179.787 114.881 179.787ZM219.49 205V179.716L272.544 133.267C276.521 129.669 279.907 126.378 282.7 123.395C285.494 120.365 287.625 117.334 289.092 114.304C290.56 111.226 291.294 107.888 291.294 104.29C291.294 100.265 290.418 96.8324 288.666 93.9915C286.914 91.1032 284.5 88.8778 281.422 87.3153C278.344 85.7528 274.817 84.9716 270.839 84.9716C266.815 84.9716 263.287 85.8002 260.257 87.4574C257.227 89.0672 254.859 91.411 253.155 94.4886C251.498 97.5663 250.669 101.307 250.669 105.71H217.359C217.359 95.8144 219.585 87.268 224.036 80.071C228.486 72.8741 234.736 67.3343 242.786 63.4517C250.882 59.5218 260.281 57.5568 270.982 57.5568C282.014 57.5568 291.602 59.4034 299.746 63.0966C307.89 66.7898 314.187 71.9508 318.638 78.5795C323.136 85.161 325.385 92.8078 325.385 101.52C325.385 107.06 324.272 112.552 322.047 117.997C319.821 123.442 315.821 129.455 310.044 136.037C304.315 142.618 296.171 150.502 285.612 159.688L268.212 175.739V176.662H327.161V205H219.49Z"/>
</mask>
<path d="M114.881 208.551C102.191 208.551 91.2538 205.545 82.0682 199.531C72.8826 193.471 65.804 184.782 60.8324 173.466C55.8608 162.102 53.3987 148.442 53.446 132.486C53.4934 116.529 55.9792 102.988 60.9034 91.8608C65.875 80.6865 72.9299 72.1875 82.0682 66.3636C91.2538 60.4924 102.191 57.5568 114.881 57.5568C127.57 57.5568 138.508 60.4924 147.693 66.3636C156.926 72.1875 164.028 80.6865 169 91.8608C173.972 103.035 176.434 116.577 176.386 132.486C176.386 148.49 173.901 162.173 168.929 173.537C163.957 184.901 156.879 193.589 147.693 199.602C138.555 205.568 127.617 208.551 114.881 208.551ZM114.881 179.787C122.456 179.787 128.588 175.928 133.276 168.21C137.963 160.445 140.283 148.537 140.236 132.486C140.236 121.974 139.17 113.31 137.04 106.491C134.909 99.6259 131.95 94.5123 128.162 91.1506C124.374 87.7888 119.947 86.108 114.881 86.108C107.352 86.108 101.268 89.9195 96.6278 97.5426C91.9877 105.118 89.6439 116.766 89.5966 132.486C89.5492 143.139 90.5672 151.97 92.6506 158.977C94.7813 165.985 97.7642 171.217 101.599 174.673C105.435 178.082 109.862 179.787 114.881 179.787ZM219.49 205V179.716L272.544 133.267C276.521 129.669 279.907 126.378 282.7 123.395C285.494 120.365 287.625 117.334 289.092 114.304C290.56 111.226 291.294 107.888 291.294 104.29C291.294 100.265 290.418 96.8324 288.666 93.9915C286.914 91.1032 284.5 88.8778 281.422 87.3153C278.344 85.7528 274.817 84.9716 270.839 84.9716C266.815 84.9716 263.287 85.8002 260.257 87.4574C257.227 89.0672 254.859 91.411 253.155 94.4886C251.498 97.5663 250.669 101.307 250.669 105.71H217.359C217.359 95.8144 219.585 87.268 224.036 80.071C228.486 72.8741 234.736 67.3343 242.786 63.4517C250.882 59.5218 260.281 57.5568 270.982 57.5568C282.014 57.5568 291.602 59.4034 299.746 63.0966C307.89 66.7898 314.187 71.9508 318.638 78.5795C323.136 85.161 325.385 92.8078 325.385 101.52C325.385 107.06 324.272 112.552 322.047 117.997C319.821 123.442 315.821 129.455 310.044 136.037C304.315 142.618 296.171 150.502 285.612 159.688L268.212 175.739V176.662H327.161V205H219.49Z" fill="white"/>
<path d="M82.0682 199.531L73.8074 212.052L73.8299 212.066L73.8525 212.081L82.0682 199.531ZM60.8324 173.466L47.09 179.478L47.0946 179.489L47.0993 179.499L60.8324 173.466ZM53.446 132.486L38.4461 132.441L53.446 132.486ZM60.9034 91.8608L47.1986 85.7633L47.1926 85.7768L47.1866 85.7904L60.9034 91.8608ZM82.0682 66.3636L90.1298 79.0132L90.1382 79.0078L90.1466 79.0024L82.0682 66.3636ZM147.693 66.3636L139.615 79.0024L139.653 79.0266L139.691 79.0506L147.693 66.3636ZM169 91.8608L182.705 85.7633L169 91.8608ZM176.386 132.486L161.386 132.441L161.386 132.463V132.486H176.386ZM168.929 173.537L155.187 167.525V167.525L168.929 173.537ZM147.693 199.602L155.893 212.163L155.901 212.157L155.909 212.152L147.693 199.602ZM133.276 168.21L146.096 175.997L146.107 175.98L146.117 175.962L133.276 168.21ZM140.236 132.486H125.236V132.508L125.236 132.53L140.236 132.486ZM137.04 106.491L122.714 110.937L122.718 110.952L122.723 110.966L137.04 106.491ZM128.162 91.1506L138.119 79.9317L138.119 79.9317L128.162 91.1506ZM96.6278 97.5426L109.419 105.377L109.43 105.36L109.441 105.342L96.6278 97.5426ZM89.5966 132.486L104.596 132.552L104.596 132.542L104.597 132.531L89.5966 132.486ZM92.6506 158.977L78.2725 163.252L78.2858 163.296L78.2993 163.341L92.6506 158.977ZM101.599 174.673L91.5574 185.816L91.5956 185.85L91.634 185.884L101.599 174.673ZM114.881 193.551C104.644 193.551 96.6649 191.159 90.2839 186.981L73.8525 212.081C85.8426 219.93 99.7386 223.551 114.881 223.551V193.551ZM90.329 187.011C83.843 182.732 78.5231 176.441 74.5655 167.433L47.0993 179.499C53.0848 193.124 61.9221 204.21 73.8074 212.052L90.329 187.011ZM74.5747 167.454C70.6413 158.463 68.4031 146.976 68.446 132.53L38.4461 132.441C38.3943 149.909 41.0803 165.742 47.09 179.478L74.5747 167.454ZM68.446 132.53C68.489 118.033 70.754 106.667 74.6202 97.9312L47.1866 85.7904C41.2044 99.308 38.4978 115.025 38.4461 132.441L68.446 132.53ZM74.6082 97.9583C78.5418 89.1171 83.7857 83.0563 90.1298 79.0132L74.0066 53.7141C62.0742 61.3187 53.2082 72.256 47.1986 85.7633L74.6082 97.9583ZM90.1466 79.0024C96.5459 74.9122 104.575 72.5568 114.881 72.5568V42.5568C99.8072 42.5568 85.9617 46.0727 73.9898 53.7248L90.1466 79.0024ZM114.881 72.5568C125.186 72.5568 133.215 74.9122 139.615 79.0024L155.772 53.7248C143.8 46.0727 129.954 42.5568 114.881 42.5568V72.5568ZM139.691 79.0506C146.117 83.104 151.38 89.158 155.295 97.9583L182.705 85.7633C176.677 72.2151 167.736 61.271 155.696 53.6767L139.691 79.0506ZM155.295 97.9583C159.189 106.711 161.429 118.039 161.386 132.441L191.386 132.53C191.438 115.115 188.754 99.3591 182.705 85.7633L155.295 97.9583ZM161.386 132.486C161.386 146.996 159.125 158.522 155.187 167.525L182.671 179.549C188.676 165.825 191.386 149.983 191.386 132.486H161.386ZM155.187 167.525C151.227 176.576 145.918 182.836 139.477 187.052L155.909 212.152C167.84 204.342 176.688 193.225 182.671 179.549L155.187 167.525ZM139.493 187.042C133.179 191.164 125.202 193.551 114.881 193.551V223.551C130.033 223.551 143.931 219.972 155.893 212.163L139.493 187.042ZM114.881 194.787C128.776 194.787 139.3 187.186 146.096 175.997L120.455 160.424C117.876 164.67 116.137 164.787 114.881 164.787V194.787ZM146.117 175.962C152.942 164.657 155.286 149.405 155.236 132.442L125.236 132.53C125.281 147.669 122.984 156.233 120.434 160.458L146.117 175.962ZM155.236 132.486C155.236 121.102 154.099 110.792 151.357 102.017L122.723 110.966C124.242 115.827 125.236 122.847 125.236 132.486H155.236ZM151.366 102.045C148.747 93.6066 144.639 85.7181 138.119 79.9317L118.205 102.369C119.261 103.306 121.071 105.645 122.714 110.937L151.366 102.045ZM138.119 79.9317C131.585 74.1331 123.615 71.1079 114.881 71.1079V101.108C116.279 101.108 117.163 101.445 118.205 102.369L138.119 79.9317ZM114.881 71.1079C101.071 71.1079 90.5847 78.6216 83.8149 89.7434L109.441 105.342C111.951 101.217 113.633 101.108 114.881 101.108V71.1079ZM83.8365 89.7079C77.0346 100.813 74.6468 115.807 74.5967 132.441L104.597 132.531C104.641 117.725 106.941 109.424 109.419 105.377L83.8365 89.7079ZM74.5967 132.419C74.5456 143.935 75.6267 154.352 78.2725 163.252L107.029 154.703C105.508 149.587 104.553 142.344 104.596 132.552L74.5967 132.419ZM78.2993 163.341C80.9081 171.921 85.0194 179.924 91.5574 185.816L111.642 163.531C110.509 162.51 108.654 160.049 107.002 154.614L78.2993 163.341ZM91.634 185.884C98.1473 191.674 106.098 194.787 114.881 194.787V164.787C113.625 164.787 112.722 164.491 111.565 163.462L91.634 185.884ZM219.49 205H204.49V220H219.49V205ZM219.49 179.716L209.609 168.43L204.49 172.912V179.716H219.49ZM272.544 133.267L282.425 144.553L282.517 144.472L282.608 144.39L272.544 133.267ZM282.7 123.395L293.649 133.648L293.689 133.605L293.729 133.562L282.7 123.395ZM289.092 114.304L302.592 120.843L302.612 120.802L302.631 120.761L289.092 114.304ZM288.666 93.9915L275.841 101.771L275.87 101.818L275.899 101.865L288.666 93.9915ZM281.422 87.3153L274.631 100.69H274.632L281.422 87.3153ZM260.257 87.4574L267.294 100.704L267.375 100.662L267.454 100.618L260.257 87.4574ZM253.155 94.4886L240.033 87.2212L239.99 87.2989L239.948 87.3771L253.155 94.4886ZM250.669 105.71V120.71H265.669V105.71H250.669ZM217.359 105.71H202.359V120.71H217.359V105.71ZM224.036 80.071L236.793 87.9606L236.793 87.9606L224.036 80.071ZM242.786 63.4517L249.302 76.9621L249.319 76.9541L249.335 76.9461L242.786 63.4517ZM299.746 63.0966L305.941 49.4357L299.746 63.0966ZM318.638 78.5795L306.184 86.9411L306.219 86.9924L306.254 87.0434L318.638 78.5795ZM322.047 117.997L308.162 112.322V112.322L322.047 117.997ZM310.044 136.037L298.77 126.142L298.75 126.165L298.73 126.188L310.044 136.037ZM285.612 159.688L275.767 148.371L275.602 148.514L275.442 148.662L285.612 159.688ZM268.212 175.739L258.041 164.713L253.212 169.168V175.739H268.212ZM268.212 176.662H253.212V191.662H268.212V176.662ZM327.161 176.662H342.161V161.662H327.161V176.662ZM327.161 205V220H342.161V205H327.161ZM234.49 205V179.716H204.49V205H234.49ZM229.371 191.002L282.425 144.553L262.663 121.981L209.609 168.43L229.371 191.002ZM282.608 144.39C286.803 140.594 290.501 137.009 293.649 133.648L271.752 113.142C269.312 115.746 266.239 118.743 262.48 122.144L282.608 144.39ZM293.729 133.562C297.305 129.683 300.358 125.455 302.592 120.843L275.593 107.765C274.891 109.214 273.683 111.047 271.672 113.228L293.729 133.562ZM302.631 120.761C305.114 115.555 306.294 109.996 306.294 104.29H276.294C276.294 105.781 276.006 106.897 275.553 107.847L302.631 120.761ZM306.294 104.29C306.294 98.06 304.92 91.772 301.434 86.1181L275.899 101.865C275.916 101.893 276.294 102.47 276.294 104.29H306.294ZM301.491 86.2123C298.256 80.8783 293.727 76.7399 288.212 73.9403L274.632 100.69C275.272 101.016 275.573 101.328 275.841 101.771L301.491 86.2123ZM288.212 73.9403C282.731 71.1575 276.816 69.9716 270.839 69.9716V99.9716C272.818 99.9716 273.957 100.348 274.631 100.69L288.212 73.9403ZM270.839 69.9716C264.717 69.9716 258.637 71.2469 253.06 74.2968L267.454 100.618C267.938 100.353 268.912 99.9716 270.839 99.9716V69.9716ZM253.22 74.2106C247.558 77.2187 243.107 81.6715 240.033 87.2212L266.277 101.756C266.612 101.15 266.896 100.916 267.294 100.704L253.22 74.2106ZM239.948 87.3771C236.847 93.1363 235.669 99.4563 235.669 105.71H265.669C265.669 103.157 266.149 101.996 266.362 101.6L239.948 87.3771ZM250.669 90.7102H217.359V120.71H250.669V90.7102ZM232.359 105.71C232.359 98.122 234.041 92.4099 236.793 87.9606L211.278 72.1815C205.128 82.126 202.359 93.5068 202.359 105.71H232.359ZM236.793 87.9606C239.655 83.3323 243.675 79.6766 249.302 76.9621L236.269 49.9413C225.798 54.992 217.317 62.4158 211.278 72.1815L236.793 87.9606ZM249.335 76.9461C255.04 74.1771 262.125 72.5568 270.982 72.5568V42.5568C258.436 42.5568 246.724 44.8664 236.236 49.9573L249.335 76.9461ZM270.982 72.5568C280.364 72.5568 287.752 74.1279 293.551 76.7575L305.941 49.4357C295.451 44.6789 283.664 42.5568 270.982 42.5568V72.5568ZM293.551 76.7575C299.47 79.4418 303.468 82.8955 306.184 86.9411L331.091 70.218C324.906 61.0061 316.31 54.1377 305.941 49.4357L293.551 76.7575ZM306.254 87.0434C308.889 90.8995 310.385 95.5346 310.385 101.52H340.385C340.385 90.0809 337.383 79.4225 331.022 70.1157L306.254 87.0434ZM310.385 101.52C310.385 104.995 309.697 108.566 308.162 112.322L335.932 123.672C338.848 116.538 340.385 109.124 340.385 101.52H310.385ZM308.162 112.322C306.794 115.668 303.932 120.262 298.77 126.142L321.318 145.932C327.709 138.649 332.849 131.216 335.932 123.672L308.162 112.322ZM298.73 126.188C293.643 132.032 286.074 139.404 275.767 148.371L295.457 171.004C306.267 161.6 314.986 153.205 321.358 145.886L298.73 126.188ZM275.442 148.662L258.041 164.713L278.382 186.764L295.783 170.713L275.442 148.662ZM253.212 175.739V176.662H283.212V175.739H253.212ZM268.212 191.662H327.161V161.662H268.212V191.662ZM312.161 176.662V205H342.161V176.662H312.161ZM327.161 190H219.49V220H327.161V190Z" fill="#483511" mask="url(#path-2-outside-1_321_11)"/>
</svg>
